<?xml version="1.0" encoding="UTF-8"?>
<svg id="Capa_1" data-name="Capa 1" xmlns="http://www.w3.org/2000/svg" viewBox="0 0 528.1 617.25">
  <defs>
    <style>
      .cls-1 {
        fill: #fff;
      }
    </style>
  </defs>
  <path class="cls-1" d="m45.75,283.6c-.99-16.22-2.02-32.87-3.05-49.79-.79.05-1.62.1-2.44.16-6.07.45-10.98-3.24-10.58-9.3.39-5.98,1.77-12.07,3.82-17.71,2.28-6.28,5.97-12.04,8.71-18.18,1.22-2.73,2.31-5.84,2.26-8.76-.61-35.57,11.93-66.02,35.31-92.41,24.29-27.42,54.47-46.52,87.2-62.04,20.45-9.7,41.73-16.9,63.84-21.9,26.43-5.97,52.44-4.39,78.35,2.64,41.73,11.32,79.58,30.49,113.52,57.14,21.23,16.67,39,36.46,50.22,61.44,7.66,17.06,12.01,34.91,11.31,53.65-.19,5.1,1.5,9.06,3.33,13.38,3.45,8.12,6.65,16.36,9.82,24.6.61,1.59.71,3.41.83,5.15.57,8.2-3.45,12.12-12.47,12.27-1.11,16.74-2.23,33.48-3.34,50.25,3.99,1.09,8.19,1.81,12.05,3.37,16.14,6.5,25.01,19.49,29.5,35.49,2.3,8.19,3.48,16.89,3.77,25.41.64,18.69,1.08,37.46-3.52,55.84-4.34,17.36-11.5,33.23-25.04,45.54-10.68,9.7-23.36,15.2-37.6,16.84-4.22.49-6.22,1.97-7.68,6.13-12.18,34.53-33.13,63.22-59.68,88.03-21.11,19.72-45.02,35.08-72.07,45.36-20.02,7.6-40.78,11.76-62.22,10.98-32.05-1.17-61.3-11.61-88.45-28.3-39.07-24.01-68.77-56.62-89.12-97.67-3.26-6.58-5.84-13.51-8.4-20.4-.91-2.46-2.05-3.52-4.66-3.71-11.92-.89-22.94-4.48-32.86-11.26-12.69-8.68-21.03-20.74-26.98-34.66-5.2-12.18-7.84-24.98-8.58-38.14-1.01-17.95-1.72-35.96,1.89-53.71,3.32-16.31,10.49-30.54,25.65-39.03,5.22-2.92,11.27-4.37,17.39-6.66Zm234.92,2.95c-8.81-5.36-17.75-6.15-27.1-2.61-4.81,1.82-5.04,2.27-4.16,7.31,2.07,11.9,2.42,23.84-.17,35.7-1.5,6.87-3.52,13.62-5.31,20.43,6.98,1.86,10.57,6.29,8.86,11.74-.71,2.25-2.65,4.11-4.03,6.15-3.19,4.71-7.34,9.05-9.4,14.22-5.71,14.38,1.67,28.23,16.4,31.4,3.89.84,8.19.49,12.19-.09,6.17-.9,10.59.88,11.82,5.59,1.38,5.32-1.38,9.66-7.38,11.47-1.66.5-3.38.86-5.09,1.19-20.79,3.95-42.25-9.36-46.87-29.52-1.24-5.41-.93-11.17-1.32-16.77-22.04,16.65-46.96,22.77-74.47,17.36-27.43-5.4-48.2-20.43-62.78-44.42-.4,1.24-.4,2.18-.39,3.13.21,24.09.55,48.17,3.6,72.12,2.41,18.95,7.31,37.14,16.05,54.19,16.8,32.8,40.95,59.16,70.98,80.2,23.52,16.49,49.19,27.82,78.05,30.97,26.36,2.88,51.46-1.98,75.34-13.04,35.69-16.52,64.22-41.71,87.17-73.43,18.91-26.14,29.46-55.29,31.43-87.51.92-14.94,1.89-29.88,2.59-44.83.32-6.79.05-13.6.05-20.4-2.29,2.18-3.75,4.71-5.49,7.02-20.39,27.05-47.88,39.51-81.32,37.46-31.05-1.91-54.5-17.08-69.46-44.63-11.99-22.08-14.56-45.59-9.78-70.39Zm-67.92-125.18c-.24-.16-.48-.31-.71-.47-8.48,4.5-16.85,9.22-25.45,13.47-15.65,7.73-31.39,15.28-47.21,22.67-2.85,1.33-6.2,2.1-9.34,2.16-5.75.11-9.66-5.43-7.82-10.86.94-2.78,2.48-5.43,4.09-7.91,2.17-3.34,4.67-6.47,7.03-9.69-.21-.23-.43-.46-.64-.69-10.32,5.24-20.68,10.42-30.91,15.84-1.05.55-1.85,2.56-1.87,3.9-.14,10.99-.07,21.97-.06,32.96,0,3.8,0,7.61,0,12.03,24.35-18.83,51-26.4,80.6-20.48,30.08,6.02,50.83,24.07,63.13,52.33,14.17-7.25,28.21-6.96,42.21-.05,12.43-28.17,33.16-46.23,63-52.29,29.31-5.95,56.03,1.15,80.03,20.05.09-1.98.19-3.19.19-4.4.01-17.11-.05-34.21.08-51.32.02-2.58-.83-4.05-2.96-5.39-22.7-14.2-46.48-26.24-71.36-36.14-2.59-1.03-3.73-.22-5.01,1.91-13.66,22.67-31.58,41.44-53.21,56.56-7.01,4.9-14.7,8.86-22.27,12.87-3.11,1.65-6.7,1.32-9.43-1.28-2.77-2.64-3.34-6.04-2.27-9.68.35-1.19.78-2.38,1.38-3.46,3.59-6.56,7.23-13.1,10.87-19.64,1.33-2.4,2.72-4.77,4.52-7.92-1.45.49-1.82.57-2.13.73-16.63,8.84-33.14,17.89-49.93,26.42-7.08,3.6-14.67,6.22-22.14,8.99-3.5,1.3-7.03.64-9.57-2.36-2.47-2.9-2.77-6.34-1.41-9.85.67-1.74,1.4-3.5,2.42-5.04,3.84-5.83,7.81-11.58,11.72-17.36,1.49-2.2,2.96-4.42,4.44-6.63Zm-50.73,70.69c-21.19-.11-39.41,7.15-53.87,22.69-17.7,19.02-22.92,41.85-18.38,66.96,3.26,18.09,12.49,33.1,26.7,44.68,15.09,12.28,32.75,17.1,52.07,15.7,20.58-1.49,37.56-9.97,49.21-27.29,16.13-23.95,18.43-49.96,9.01-76.85-10.12-28.88-35.8-46.69-64.73-45.89Zm194.32.02c-10.92.06-28.87,8.33-42.28,25.34-16.31,20.68-20.03,44.39-14.6,69.65,7.89,36.69,39.29,59.17,75.47,54.88,46.07-5.47,72.25-48.17,64.9-89.66-6.43-36.31-35.65-60.03-83.49-60.21ZM50.16,194.53c1.34-.37,1.92-.36,2.25-.65,4.01-3.52,7.96-7.1,11.96-10.64,17.61-15.58,36.45-29.47,56.93-41.08,37.42-21.22,77-36.26,119.96-41.41,19.79-2.37,39.59-2.61,59.37.26,1.5.22,3.02.24,4.53.35.13-.34.26-.69.39-1.03-2.84-1.76-5.48-4.05-8.55-5.16-6.42-2.33-12.97-4.5-19.64-5.93-26.42-5.67-52.57-3.21-78.45,3.49-40.71,10.54-77.17,29.53-109.77,55.94-14.6,11.82-27.21,25.52-37.16,41.54-.7,1.12-1.05,2.46-1.81,4.31Zm9.53,169.99c-.32.08-.92.17-1.47.39-10.77,4.29-14.56,14-13.36,25.73.65,6.38,3.58,11.82,7.18,17.02,2.52,3.63,2.22,6.67-.45,9.49-3.33,3.52-8.19,3.52-11.83-.39-6.29-6.74-10.31-14.72-11.36-23.92-1.47-12.81.3-24.74,10.92-33.66,2.27-1.9,4.9-3.37,7.47-5.12-1.71-1.56-3.5-2.91-4.93-4.57-1.45-1.68-2.77-3.56-3.74-5.55-2.3-4.71-1.28-11.11,1.98-13.9,3.41-2.92,8.11-2.8,13.17.4,1.74,1.1,3.44,2.29,4.78,3.18,0-7.12-.13-14.19.05-21.25.1-3.85-1.83-5.67-5.2-6.68-7.19-2.15-16.57,1.29-22.26,8.24-6.05,7.38-9.06,16-10.01,25.36-1.75,17.07-1.59,34.13.68,51.14,1.93,14.45,6.67,27.82,16.04,39.25,7.54,9.21,17.01,15.05,29,16.73-2.23-27.43-4.43-54.58-6.64-81.89Zm422.47-10.87c3.83,3.45,8.63,6.62,11.92,10.94,10.48,13.76,8.93,35.93-3.89,50.49-4.56,5.18-9.01,6.08-12.61,3.14-3.85-3.15-3.81-6.91.25-12.87,5.26-7.7,7.07-16.1,5.2-25.25-1.67-8.19-8.33-15.08-14.47-15.5-2.14,27.25-4.28,54.49-6.44,82.09,3.23-.9,6.44-1.48,9.4-2.68,15.43-6.21,24.96-18.16,30.03-33.39,3.16-9.49,5.29-19.53,6.3-29.48,1.56-15.39,1.77-30.93-.97-46.28-1.83-10.21-5.82-19.46-14.64-25.66-5.94-4.17-12.54-5.46-19.43-2.26-1.07.5-2.46,1.82-2.48,2.8-.2,7.8-.11,15.6-.11,23.45,2.11-1.29,4.42-2.97,6.95-4.17,6.86-3.27,13.41.15,13.96,7.47.19,2.6-.26,5.67-1.55,7.85-2.11,3.55-5.15,6.56-7.4,9.3Z"/>
  <path class="cls-1" d="m264.26,557.39c-20.65-.95-39.84-6.44-57.71-16.24-33.58-18.42-57.89-45.35-72.46-80.85-3.23-7.87-5.67-16.06-4.2-24.76,1.78-10.57,11.49-15.43,20.82-10.07,7.01,4.03,13.41,9.1,20.35,13.28,24.84,14.95,51.88,22.72,80.76,24.6,35.58,2.31,69.23-4.46,100.64-21.38,7.44-4.01,14.29-9.11,21.42-13.72.84-.54,1.65-1.12,2.49-1.66,5.27-3.37,10.79-4.86,16.49-1.27,5.62,3.54,6.82,9.27,6.6,15.36-.39,10.72-4.37,20.44-9.16,29.78-21.39,41.71-53.66,70.54-99.55,82.66-8.61,2.27-17.65,2.89-26.5,4.26Zm1.57-16.8c2.59-.3,6.22-.45,9.75-1.16,17.99-3.62,31.06-13.25,36.66-31.28,3.86-12.42-1.4-21.42-13.26-22.35-12.09-.94-22.7,3.52-24.45,17.34-.26,2.07-1.03,4.11-1.77,6.08-1.37,3.68-3.9,6.06-8,6.28-4.14.22-6.54-2.28-7.86-5.73-1.15-3-1.83-6.2-2.54-9.36-1.53-6.81-5.41-11.76-12.23-13.22-4.76-1.02-9.93-1.31-14.75-.67-7.41.98-11.38,6.44-11.32,13.98.05,6.39,1.93,12.27,5.26,17.68,9.98,16.23,25.43,21.8,44.51,22.4Z"/>
  <path class="cls-1" d="m368.19,181.35c15.82.38,30.81,4.13,44.85,11.43,6.32,3.29,7.96,10.09,3.91,15-2.59,3.14-5.92,3.79-10.48,2.17-7.62-2.7-15.14-5.77-22.91-7.88-5.72-1.55-11.78-1.89-17.71-2.63-6.52-.82-9.91-4.07-9.68-9.54.23-5.53,3.92-8.53,10.52-8.55.5,0,1,0,1.5,0Z"/>
  <path class="cls-1" d="m167.11,339.37c-15.52.11-29.4-14.15-29.48-30.3-.09-17.3,12.95-31.42,29.28-31.69,17.2-.28,30.78,13.16,30.96,30.65.18,17.47-13.31,31.21-30.76,31.34Z"/>
  <path class="cls-1" d="m362.27,277.41c16.6-.23,30.26,13.14,30.55,29.89.3,17.46-13.37,31.97-30.21,32.06-16.03.09-29.87-13.76-30.14-30.16-.29-17.75,12.65-31.55,29.8-31.79Z"/>
</svg>