<svg width="529" height="618" viewBox="0 0 529 618" fill="none" xmlns="http://www.w3.org/2000/svg">
<g clip-path="url(#clip0_1_16)">
<rect width="528.1" height="617.25" fill="white"/>
<rect y="-1" width="528" height="617" fill="white"/>
<path d="M45.75 283.6C44.76 267.38 43.73 250.73 42.7 233.81C41.91 233.86 41.08 233.91 40.26 233.97C34.19 234.42 29.28 230.73 29.68 224.67C30.07 218.69 31.45 212.6 33.5 206.96C35.78 200.68 39.47 194.92 42.21 188.78C43.43 186.05 44.52 182.94 44.47 180.02C43.86 144.45 56.4 114 79.78 87.61C104.07 60.19 134.25 41.09 166.98 25.57C187.43 15.87 208.71 8.67 230.82 3.67C257.25 -2.3 283.26 -0.720001 309.17 6.31C350.9 17.63 388.75 36.8 422.69 63.45C443.92 80.12 461.69 99.91 472.91 124.89C480.57 141.95 484.92 159.8 484.22 178.54C484.03 183.64 485.72 187.6 487.55 191.92C491 200.04 494.2 208.28 497.37 216.52C497.98 218.11 498.08 219.93 498.2 221.67C498.77 229.87 494.75 233.79 485.73 233.94C484.62 250.68 483.5 267.42 482.39 284.19C486.38 285.28 490.58 286 494.44 287.56C510.58 294.06 519.45 307.05 523.94 323.05C526.24 331.24 527.42 339.94 527.71 348.46C528.35 367.15 528.79 385.92 524.19 404.3C519.85 421.66 512.69 437.53 499.15 449.84C488.47 459.54 475.79 465.04 461.55 466.68C457.33 467.17 455.33 468.65 453.87 472.81C441.69 507.34 420.74 536.03 394.19 560.84C373.08 580.56 349.17 595.92 322.12 606.2C302.1 613.8 281.34 617.96 259.9 617.18C227.85 616.01 198.6 605.57 171.45 588.88C132.38 564.87 102.68 532.26 82.33 491.21C79.07 484.63 76.49 477.7 73.93 470.81C73.02 468.35 71.88 467.29 69.27 467.1C57.35 466.21 46.33 462.62 36.41 455.84C23.72 447.16 15.38 435.1 9.43001 421.18C4.23001 409 1.59001 396.2 0.850011 383.04C-0.159989 365.09 -0.869988 347.08 2.74001 329.33C6.06001 313.02 13.23 298.79 28.39 290.3C33.61 287.38 39.66 285.93 45.78 283.64L45.75 283.6ZM280.67 286.55C271.86 281.19 262.92 280.4 253.57 283.94C248.76 285.76 248.53 286.21 249.41 291.25C251.48 303.15 251.83 315.09 249.24 326.95C247.74 333.82 245.72 340.57 243.93 347.38C250.91 349.24 254.5 353.67 252.79 359.12C252.08 361.37 250.14 363.23 248.76 365.27C245.57 369.98 241.42 374.32 239.36 379.49C233.65 393.87 241.03 407.72 255.76 410.89C259.65 411.73 263.95 411.38 267.95 410.8C274.12 409.9 278.54 411.68 279.77 416.39C281.15 421.71 278.39 426.05 272.39 427.86C270.73 428.36 269.01 428.72 267.3 429.05C246.51 433 225.05 419.69 220.43 399.53C219.19 394.12 219.5 388.36 219.11 382.76C197.07 399.41 172.15 405.53 144.64 400.12C117.21 394.72 96.44 379.69 81.86 355.7C81.46 356.94 81.46 357.88 81.47 358.83C81.68 382.92 82.02 407 85.07 430.95C87.48 449.9 92.38 468.09 101.12 485.14C117.92 517.94 142.07 544.3 172.1 565.34C195.62 581.83 221.29 593.16 250.15 596.31C276.51 599.19 301.61 594.33 325.49 583.27C361.18 566.75 389.71 541.56 412.66 509.84C431.57 483.7 442.12 454.55 444.09 422.33C445.01 407.39 445.98 392.45 446.68 377.5C447 370.71 446.73 363.9 446.73 357.1C444.44 359.28 442.98 361.81 441.24 364.12C420.85 391.17 393.36 403.63 359.92 401.58C328.87 399.67 305.42 384.5 290.46 356.95C278.47 334.87 275.9 311.36 280.68 286.56L280.67 286.55ZM212.75 161.37C212.51 161.21 212.27 161.06 212.04 160.9C203.56 165.4 195.19 170.12 186.59 174.37C170.94 182.1 155.2 189.65 139.38 197.04C136.53 198.37 133.18 199.14 130.04 199.2C124.29 199.31 120.38 193.77 122.22 188.34C123.16 185.56 124.7 182.91 126.31 180.43C128.48 177.09 130.98 173.96 133.34 170.74C133.13 170.51 132.91 170.28 132.7 170.05C122.38 175.29 112.02 180.47 101.79 185.89C100.74 186.44 99.94 188.45 99.92 189.79C99.78 200.78 99.85 211.76 99.86 222.75C99.86 226.55 99.86 230.36 99.86 234.78C124.21 215.95 150.86 208.38 180.46 214.3C210.54 220.32 231.29 238.37 243.59 266.63C257.76 259.38 271.8 259.67 285.8 266.58C298.23 238.41 318.96 220.35 348.8 214.29C378.11 208.34 404.83 215.44 428.83 234.34C428.92 232.36 429.02 231.15 429.02 229.94C429.03 212.83 428.97 195.73 429.1 178.62C429.12 176.04 428.27 174.57 426.14 173.23C403.44 159.03 379.66 146.99 354.78 137.09C352.19 136.06 351.05 136.87 349.77 139C336.11 161.67 318.19 180.44 296.56 195.56C289.55 200.46 281.86 204.42 274.29 208.43C271.18 210.08 267.59 209.75 264.86 207.15C262.09 204.51 261.52 201.11 262.59 197.47C262.94 196.28 263.37 195.09 263.97 194.01C267.56 187.45 271.2 180.91 274.84 174.37C276.17 171.97 277.56 169.6 279.36 166.45C277.91 166.94 277.54 167.02 277.23 167.18C260.6 176.02 244.09 185.07 227.3 193.6C220.22 197.2 212.63 199.82 205.16 202.59C201.66 203.89 198.13 203.23 195.59 200.23C193.12 197.33 192.82 193.89 194.18 190.38C194.85 188.64 195.58 186.88 196.6 185.34C200.44 179.51 204.41 173.76 208.32 167.98C209.81 165.78 211.28 163.56 212.76 161.35L212.75 161.37ZM162.02 232.06C140.83 231.95 122.61 239.21 108.15 254.75C90.45 273.77 85.23 296.6 89.77 321.71C93.03 339.8 102.26 354.81 116.47 366.39C131.56 378.67 149.22 383.49 168.54 382.09C189.12 380.6 206.1 372.12 217.75 354.8C233.88 330.85 236.18 304.84 226.76 277.95C216.64 249.07 190.96 231.26 162.03 232.06H162.02ZM356.34 232.08C345.42 232.14 327.47 240.41 314.06 257.42C297.75 278.1 294.03 301.81 299.46 327.07C307.35 363.76 338.75 386.24 374.93 381.95C421 376.48 447.18 333.78 439.83 292.29C433.4 255.98 404.18 232.26 356.34 232.08ZM50.16 194.53C51.5 194.16 52.08 194.17 52.41 193.88C56.42 190.36 60.37 186.78 64.37 183.24C81.98 167.66 100.82 153.77 121.3 142.16C158.72 120.94 198.3 105.9 241.26 100.75C261.05 98.38 280.85 98.14 300.63 101.01C302.13 101.23 303.65 101.25 305.16 101.36C305.29 101.02 305.42 100.67 305.55 100.33C302.71 98.57 300.07 96.28 297 95.17C290.58 92.84 284.03 90.67 277.36 89.24C250.94 83.57 224.79 86.03 198.91 92.73C158.2 103.27 121.74 122.26 89.14 148.67C74.54 160.49 61.93 174.19 51.98 190.21C51.28 191.33 50.93 192.67 50.17 194.52L50.16 194.53ZM59.69 364.52C59.37 364.6 58.77 364.69 58.22 364.91C47.45 369.2 43.66 378.91 44.86 390.64C45.51 397.02 48.44 402.46 52.04 407.66C54.56 411.29 54.26 414.33 51.59 417.15C48.26 420.67 43.4 420.67 39.76 416.76C33.47 410.02 29.45 402.04 28.4 392.84C26.93 380.03 28.7 368.1 39.32 359.18C41.59 357.28 44.22 355.81 46.79 354.06C45.08 352.5 43.29 351.15 41.86 349.49C40.41 347.81 39.09 345.93 38.12 343.94C35.82 339.23 36.84 332.83 40.1 330.04C43.51 327.12 48.21 327.24 53.27 330.44C55.01 331.54 56.71 332.73 58.05 333.62C58.05 326.5 57.92 319.43 58.1 312.37C58.2 308.52 56.27 306.7 52.9 305.69C45.71 303.54 36.33 306.98 30.64 313.93C24.59 321.31 21.58 329.93 20.63 339.29C18.88 356.36 19.04 373.42 21.31 390.43C23.24 404.88 27.98 418.25 37.35 429.68C44.89 438.89 54.36 444.73 66.35 446.41C64.12 418.98 61.92 391.83 59.71 364.52H59.69ZM482.16 353.65C485.99 357.1 490.79 360.27 494.08 364.59C504.56 378.35 503.01 400.52 490.19 415.08C485.63 420.26 481.18 421.16 477.58 418.22C473.73 415.07 473.77 411.31 477.83 405.35C483.09 397.65 484.9 389.25 483.03 380.1C481.36 371.91 474.7 365.02 468.56 364.6C466.42 391.85 464.28 419.09 462.12 446.69C465.35 445.79 468.56 445.21 471.52 444.01C486.95 437.8 496.48 425.85 501.55 410.62C504.71 401.13 506.84 391.09 507.85 381.14C509.41 365.75 509.62 350.21 506.88 334.86C505.05 324.65 501.06 315.4 492.24 309.2C486.3 305.03 479.7 303.74 472.81 306.94C471.74 307.44 470.35 308.76 470.33 309.74C470.13 317.54 470.22 325.34 470.22 333.19C472.33 331.9 474.64 330.22 477.17 329.02C484.03 325.75 490.58 329.17 491.13 336.49C491.32 339.09 490.87 342.16 489.58 344.34C487.47 347.89 484.43 350.9 482.18 353.64L482.16 353.65Z" fill="black"/>
<path d="M264.26 557.39C243.61 556.44 224.42 550.95 206.55 541.15C172.97 522.73 148.66 495.8 134.09 460.3C130.86 452.43 128.42 444.24 129.89 435.54C131.67 424.97 141.38 420.11 150.71 425.47C157.72 429.5 164.12 434.57 171.06 438.75C195.9 453.7 222.94 461.47 251.82 463.35C287.4 465.66 321.05 458.89 352.46 441.97C359.9 437.96 366.75 432.86 373.88 428.25C374.72 427.71 375.53 427.13 376.37 426.59C381.64 423.22 387.16 421.73 392.86 425.32C398.48 428.86 399.68 434.59 399.46 440.68C399.07 451.4 395.09 461.12 390.3 470.46C368.91 512.17 336.64 541 290.75 553.12C282.14 555.39 273.1 556.01 264.25 557.38L264.26 557.39ZM265.83 540.59C268.42 540.29 272.05 540.14 275.58 539.43C293.57 535.81 306.64 526.18 312.24 508.15C316.1 495.73 310.84 486.73 298.98 485.8C286.89 484.86 276.28 489.32 274.53 503.14C274.27 505.21 273.5 507.25 272.76 509.22C271.39 512.9 268.86 515.28 264.76 515.5C260.62 515.72 258.22 513.22 256.9 509.77C255.75 506.77 255.07 503.57 254.36 500.41C252.83 493.6 248.95 488.65 242.13 487.19C237.37 486.17 232.2 485.88 227.38 486.52C219.97 487.5 216 492.96 216.06 500.5C216.11 506.89 217.99 512.77 221.32 518.18C231.3 534.41 246.75 539.98 265.83 540.58V540.59Z" fill="black"/>
<path d="M368.19 181.35C384.01 181.73 399 185.48 413.04 192.78C419.36 196.07 421 202.87 416.95 207.78C414.36 210.92 411.03 211.57 406.47 209.95C398.85 207.25 391.33 204.18 383.56 202.07C377.84 200.52 371.78 200.18 365.85 199.44C359.33 198.62 355.94 195.37 356.17 189.9C356.4 184.37 360.09 181.37 366.69 181.35C367.19 181.35 367.69 181.35 368.19 181.35Z" fill="black"/>
<path d="M167.11 339.37C151.59 339.48 137.71 325.22 137.63 309.07C137.54 291.77 150.58 277.65 166.91 277.38C184.11 277.1 197.69 290.54 197.87 308.03C198.05 325.5 184.56 339.24 167.11 339.37Z" fill="black"/>
<path d="M362.27 277.41C378.87 277.18 392.53 290.55 392.82 307.3C393.12 324.76 379.45 339.27 362.61 339.36C346.58 339.45 332.74 325.6 332.47 309.2C332.18 291.45 345.12 277.65 362.27 277.41Z" fill="black"/>
</g>
<defs>
<clipPath id="clip0_1_16">
<rect width="528.1" height="617.25" fill="white"/>
</clipPath>
</defs>
</svg>
