<svg width="851" height="315" viewBox="0 0 851 315" fill="none" xmlns="http://www.w3.org/2000/svg">
<g clip-path="url(#clip0_3_2)">
<path d="M851 0H0V315H851V0Z" fill="white"/>
<path d="M348.861 169.305C350.663 169.305 352.402 169.047 354.076 168.531C355.751 168.015 357.393 167.435 359.002 166.791C360.612 166.147 362.19 165.567 363.735 165.051C365.28 164.535 366.826 164.277 368.371 164.277C370.045 164.277 371.494 164.89 372.717 166.114C374.005 167.339 374.649 168.789 374.649 170.465C374.649 172.076 374.166 173.526 373.2 174.815C372.299 176.04 371.108 177.136 369.627 178.103C368.145 179.134 366.472 180.004 364.604 180.713C362.737 181.486 360.837 182.099 358.906 182.55C357.038 183.066 355.235 183.42 353.497 183.613C351.758 183.871 350.31 184 349.151 184C342.261 184 336.305 182.582 331.282 179.746C326.324 176.91 322.236 173.172 319.016 168.531C315.796 163.891 313.446 158.606 311.965 152.676C310.484 146.746 309.84 140.688 310.033 134.5C310.227 128.313 311.225 122.254 313.028 116.324C314.83 110.394 317.406 105.109 320.754 100.469C324.167 95.8281 328.321 92.0901 333.214 89.2539C338.172 86.4179 343.806 85 350.116 85C352.499 85 355.042 85.419 357.747 86.2568C360.451 87.0947 362.93 88.3194 365.184 89.9307C367.438 91.4775 369.304 93.3787 370.786 95.6348C372.331 97.8259 373.104 100.275 373.104 102.982C373.104 104.723 372.75 106.334 372.041 107.816C371.333 109.299 369.949 110.04 367.888 110.04C366.665 110.04 365.538 109.653 364.508 108.88C363.478 108.042 362.383 107.172 361.224 106.27C360.065 105.303 358.745 104.433 357.264 103.659C355.847 102.822 354.076 102.402 351.952 102.402C348.217 102.402 344.837 103.369 341.81 105.303C338.848 107.172 336.272 109.686 334.083 112.844C331.894 116.002 330.156 119.579 328.868 123.575C327.58 127.572 326.775 131.664 326.453 135.854C326.131 140.043 326.292 144.136 326.936 148.132C327.644 152.128 328.9 155.705 330.703 158.863C332.57 162.021 334.985 164.567 337.947 166.501C340.973 168.37 344.611 169.305 348.861 169.305ZM371.74 151.419C370.968 152.322 370.162 153.192 369.326 154.029C368.553 154.803 367.716 155.544 366.814 156.253C365.913 156.897 364.947 157.413 363.917 157.8C362.887 158.187 361.728 158.38 360.44 158.38C358.122 158.38 356.158 157.767 354.548 156.543C353.003 155.319 351.747 153.803 350.781 151.999C349.815 150.13 349.107 148.132 348.656 146.005C348.27 143.814 348.077 141.783 348.077 139.914C348.077 136.627 348.527 133.63 349.429 130.923C350.331 128.216 351.65 125.896 353.389 123.962C355.128 121.964 357.285 120.449 359.86 119.418C362.5 118.322 365.526 117.774 368.939 117.774H372.996C373.639 116.872 374.316 116.067 375.024 115.357C375.797 114.584 376.795 114.197 378.018 114.197C379.177 114.197 380.079 114.423 380.723 114.874C381.431 115.325 381.946 115.938 382.268 116.711C382.654 117.42 382.88 118.225 382.944 119.128C383.073 120.031 383.137 120.932 383.137 121.835C383.137 123.833 383.041 125.799 382.848 127.732C382.654 129.602 382.558 131.535 382.558 133.533C382.558 135.467 382.687 137.465 382.944 139.527C383.201 141.525 383.653 143.459 384.296 145.328C384.554 146.037 384.908 146.682 385.359 147.262C385.809 147.842 386.26 148.454 386.711 149.099C387.161 149.679 387.548 150.291 387.87 150.936C388.192 151.516 388.353 152.192 388.353 152.966C388.353 154.577 387.773 155.77 386.614 156.543C385.519 157.316 384.232 157.703 382.751 157.703C381.592 157.703 380.497 157.51 379.467 157.123C378.501 156.736 377.568 156.253 376.666 155.673C375.764 155.029 374.895 154.352 374.058 153.643C373.286 152.869 372.513 152.128 371.74 151.419ZM365.366 141.074C366.331 139.141 367.072 137.11 367.587 134.983C368.102 132.856 368.52 130.633 368.843 128.313C368.52 128.248 368.167 128.216 367.78 128.216C367.394 128.152 367.04 128.119 366.718 128.119C365.172 128.119 363.884 128.473 362.854 129.183C361.888 129.892 361.083 130.826 360.44 131.986C359.796 133.082 359.345 134.307 359.088 135.66C358.83 137.014 358.701 138.335 358.701 139.624C358.701 143.942 359.377 146.134 360.729 146.198C362.082 146.262 363.627 144.555 365.366 141.074ZM402.981 145.715C402.981 146.939 403.045 148.164 403.174 149.389C403.367 150.613 403.464 151.806 403.464 152.966C403.464 154.449 403.014 155.77 402.112 156.93C401.275 158.026 400.148 158.573 398.731 158.573C397.057 158.573 395.705 157.896 394.675 156.543C393.709 155.125 392.936 153.482 392.357 151.612C391.841 149.679 391.487 147.713 391.294 145.715C391.165 143.717 391.101 142.073 391.101 140.784C391.101 138.528 391.423 135.95 392.067 133.05C392.711 130.149 393.676 127.41 394.964 124.832C396.253 122.189 397.862 119.966 399.794 118.161C401.725 116.357 403.979 115.454 406.555 115.454C408.873 115.454 410.772 116.163 412.253 117.581C413.735 118.999 415.151 120.611 416.503 122.415C417.984 119.966 419.851 117.904 422.105 116.228C424.423 114.552 426.967 113.714 429.735 113.714C431.731 113.714 433.502 114.294 435.047 115.454C436.657 116.55 438.009 118.032 439.104 119.901C440.263 121.706 441.229 123.769 442.002 126.089C442.774 128.409 443.386 130.762 443.837 133.146C444.287 135.467 444.609 137.755 444.803 140.011C444.996 142.267 445.092 144.2 445.092 145.812C445.092 146.907 444.963 148.099 444.706 149.389C444.449 150.678 444.03 151.902 443.45 153.063C442.871 154.158 442.131 155.093 441.229 155.866C440.327 156.64 439.265 157.026 438.042 157.026C435.981 157.026 434.436 156.446 433.406 155.286C432.376 154.062 431.667 152.612 431.281 150.936C430.894 149.195 430.701 147.358 430.701 145.425C430.765 143.491 430.798 141.783 430.798 140.301C430.798 136.498 430.444 133.694 429.735 131.89C429.092 130.02 428.319 129.086 427.417 129.086C426.515 129.086 425.615 129.956 424.713 131.696C423.811 133.437 423.135 135.95 422.685 139.237C422.491 140.655 422.395 142.202 422.395 143.878C422.395 145.489 422.395 147.294 422.395 149.292C422.395 151.226 421.848 152.902 420.753 154.319C419.723 155.673 418.274 156.35 416.406 156.35C415.247 156.35 414.217 155.93 413.316 155.093C412.479 154.19 411.738 153.063 411.094 151.709C410.515 150.291 409.999 148.712 409.549 146.972C409.163 145.167 408.809 143.362 408.486 141.558C407.65 137.175 406.877 134.403 406.168 133.243C405.525 132.083 404.945 131.986 404.43 132.953C403.979 133.856 403.625 135.531 403.367 137.98C403.11 140.43 402.981 143.008 402.981 145.715ZM462.804 142.331C463.126 142.911 463.48 143.555 463.866 144.265C464.317 144.974 464.8 145.651 465.315 146.295C465.894 146.939 466.506 147.488 467.15 147.938C467.794 148.325 468.502 148.519 469.275 148.519C470.112 148.519 470.917 148.293 471.69 147.842C472.462 147.391 473.202 146.907 473.911 146.392C474.684 145.876 475.424 145.392 476.132 144.941C476.905 144.49 477.71 144.265 478.547 144.265C479.449 144.265 480.253 144.651 480.962 145.425C481.734 146.134 482.121 146.972 482.121 147.938C482.121 149.421 481.638 150.806 480.672 152.096C479.706 153.385 478.483 154.513 477.002 155.48C475.585 156.446 474.04 157.22 472.366 157.8C470.756 158.316 469.307 158.573 468.019 158.573C465.251 158.573 462.707 157.929 460.389 156.64C458.135 155.286 456.172 153.578 454.497 151.516C452.888 149.453 451.632 147.133 450.731 144.555C449.829 141.912 449.378 139.334 449.378 136.82C449.378 134.5 449.797 132.051 450.634 129.473C451.536 126.83 452.759 124.445 454.304 122.318C455.85 120.127 457.685 118.322 459.81 116.904C461.999 115.422 464.382 114.681 466.957 114.681C468.824 114.681 470.627 115.1 472.366 115.938C474.104 116.711 475.65 117.774 477.002 119.128C478.354 120.417 479.416 121.932 480.189 123.672C481.026 125.412 481.445 127.217 481.445 129.086C481.445 131.793 480.865 134.017 479.706 135.757C478.611 137.433 477.162 138.786 475.36 139.817C473.557 140.784 471.529 141.461 469.275 141.848C467.086 142.17 464.929 142.331 462.804 142.331ZM461.838 134.113C462.546 134.371 463.254 134.597 463.963 134.79C464.735 134.919 465.508 134.983 466.281 134.983C466.989 134.983 467.73 134.887 468.502 134.693C469.275 134.5 469.983 134.21 470.627 133.823C471.336 133.437 471.915 132.953 472.366 132.373C472.816 131.729 473.042 130.987 473.042 130.149C473.042 129.634 472.881 129.118 472.559 128.603C472.237 128.022 471.819 127.539 471.303 127.152C470.853 126.701 470.337 126.346 469.758 126.089C469.178 125.766 468.663 125.605 468.212 125.605C467.504 125.605 466.764 125.928 465.991 126.572C465.282 127.217 464.639 127.99 464.059 128.893C463.48 129.795 462.964 130.729 462.514 131.696C462.128 132.663 461.902 133.469 461.838 134.113ZM495.737 112.36C497.605 112.36 499.053 112.973 500.083 114.197C501.113 115.422 501.629 116.872 501.629 118.548C501.629 120.804 501.436 123.092 501.049 125.412C500.663 127.732 500.47 130.02 500.47 132.276C500.47 135.048 500.599 137.787 500.856 140.494C501.178 143.137 501.339 145.812 501.339 148.519C501.339 149.615 501.242 150.742 501.049 151.902C500.92 152.998 500.599 153.997 500.083 154.899C499.633 155.802 498.957 156.543 498.055 157.123C497.218 157.639 496.091 157.896 494.675 157.896C492.872 157.896 491.391 157.316 490.232 156.156C489.137 154.932 488.268 153.482 487.624 151.806C486.98 150.065 486.529 148.261 486.272 146.392C486.014 144.522 485.885 142.911 485.885 141.558C485.885 140.527 485.918 139.076 485.982 137.207C486.046 135.338 486.208 133.34 486.465 131.213C486.722 129.022 487.044 126.83 487.431 124.639C487.881 122.383 488.461 120.352 489.169 118.548C489.942 116.743 490.844 115.261 491.874 114.101C492.969 112.94 494.256 112.36 495.737 112.36ZM542 136.82C542 139.527 541.517 142.17 540.551 144.748C539.585 147.262 538.233 149.55 536.495 151.612C534.82 153.61 532.792 155.222 530.41 156.446C528.092 157.671 525.516 158.283 522.683 158.283C520.043 158.283 517.66 157.736 515.536 156.64C513.475 155.544 511.705 154.094 510.223 152.289C508.742 150.42 507.616 148.325 506.843 146.005C506.07 143.62 505.684 141.203 505.684 138.754C505.684 134.5 506.586 130.826 508.388 127.732C510.191 124.639 512.412 122.222 515.053 120.481C517.757 118.677 520.687 117.614 523.842 117.291C526.997 116.969 529.894 117.452 532.535 118.741C535.239 120.031 537.493 122.157 539.296 125.122C541.098 128.087 542 131.986 542 136.82ZM531.569 136.724C531.569 134.726 531.15 133.05 530.313 131.696C529.54 130.343 528.542 129.343 527.319 128.699C526.16 127.99 524.872 127.636 523.456 127.636C522.103 127.636 520.815 128.022 519.592 128.796C518.433 129.505 517.435 130.569 516.598 131.986C515.825 133.404 515.439 135.209 515.439 137.4C515.439 140.817 516.276 143.298 517.95 144.845C519.625 146.327 521.46 146.972 523.456 146.778C525.516 146.585 527.383 145.618 529.058 143.878C530.732 142.138 531.569 139.753 531.569 136.724Z" fill="black"/>
</g>
<defs>
<clipPath id="clip0_3_2">
<rect width="851" height="315" fill="white"/>
</clipPath>
</defs>
</svg>
