<svg width="851" height="315" viewBox="0 0 851 315" fill="none" xmlns="http://www.w3.org/2000/svg">
<g clip-path="url(#clip0_1_17)">
<path d="M851 0H0V315H851V0Z" fill="black"/>
<path d="M379.418 152.676C378.927 151.279 378.443 149.933 377.977 148.58C376.088 143.098 374.926 137.484 374.954 131.658C374.989 124.783 376.451 118.268 379.863 112.26C384.295 104.455 390.841 99.176 399.157 96.0172C399.828 95.7634 400.506 95.5262 401.178 95.2812C400.531 93.4376 400.99 92.1996 402.623 91.244C403.732 90.5963 404.936 90.3156 406.209 90.2066C408.635 90.0003 409.773 90.6974 410.529 92.9345C412.219 92.754 413.9 92.5587 415.585 92.3951C418.603 92.1016 421.616 92.1956 424.606 92.6791C434.623 94.3039 442.346 99.5323 448.028 107.896C450.607 111.695 452.49 115.832 453.761 120.245C454.175 121.684 454.514 123.145 454.906 124.672C454.65 124.644 454.544 124.635 454.439 124.621C449.62 123.991 444.936 124.722 440.338 126.11C436.19 127.363 432.256 129.158 428.436 131.183C422.322 134.426 416.254 137.755 410.159 141.038C408.889 141.72 407.596 142.356 406.284 143.03C406.19 142.756 406.144 142.586 406.077 142.425C404.176 137.937 402.668 133.319 401.559 128.575C400.253 122.992 399.333 117.364 399.615 111.602C399.842 106.935 400.879 102.495 403.364 98.4785C403.855 97.6849 404.379 96.9127 404.917 96.0841C404.101 96.1181 403.374 96.2322 402.668 96.1537C402.138 96.0937 401.859 96.2676 401.572 96.6517C399.782 99.0437 398.603 101.727 397.89 104.612C396.723 109.33 396.645 114.125 397.121 118.933C397.828 126.075 399.627 132.962 402.099 139.681C402.647 141.169 403.255 142.634 403.851 144.15C395.987 147.777 387.885 150.573 379.417 152.676L379.418 152.676ZM479.518 139.863C479.49 139.912 479.462 139.964 479.434 140.014C479.023 139.833 478.62 139.63 478.199 139.474C474.34 138.054 470.49 138.286 466.662 139.574C462.737 140.896 459.3 143.094 456.247 145.843C453.414 148.397 450.732 151.12 448.013 153.801C445.626 156.155 443.375 158.659 440.557 160.535C437.446 162.606 434.038 163.696 430.289 163.739C426.996 163.778 423.857 163.037 420.783 161.949C414.798 159.828 409.353 156.706 404.299 152.875C402.703 151.664 401.154 150.388 399.521 149.092C399.826 148.946 400.002 148.861 400.178 148.777C404.803 146.557 409.485 144.444 414.042 142.089C419.976 139.026 425.761 135.671 431.706 132.631C437.104 129.872 442.723 127.66 448.865 127.168C452.123 126.907 455.278 127.321 458.342 128.479C464.068 130.643 469.447 133.508 474.669 136.68C476.319 137.682 477.903 138.797 479.515 139.86L479.518 139.863ZM461.787 145.025C461.872 144.918 461.893 144.873 461.929 144.851C465.415 142.544 469.126 140.84 473.383 140.66C475.171 140.583 476.96 140.639 478.628 141.407C480.134 142.1 481.274 143.132 481.306 144.943C481.337 146.808 480.272 147.979 478.714 148.767C477.025 149.62 475.212 149.584 473.407 149.351C469.22 148.809 465.5 146.986 461.787 145.025Z" fill="white"/>
</g>
<defs>
<clipPath id="clip0_1_17">
<rect width="851" height="315" fill="white"/>
</clipPath>
</defs>
</svg>
