<svg width="25" height="20" viewBox="0 0 25 20" fill="none" xmlns="http://www.w3.org/2000/svg">
<path d="M2.60735 15.1653C2.5047 14.8809 2.40347 14.6069 2.3062 14.3315C1.91157 13.2156 1.67202 12.0716 1.68641 10.8827C1.70365 9.47974 2.02436 8.14817 2.75959 6.91737C3.71476 5.31838 5.11686 4.23174 6.89277 3.5753C7.03594 3.52256 7.18083 3.47318 7.32431 3.42222C7.18913 3.04693 7.28851 2.79367 7.6378 2.59633C7.87487 2.46258 8.13174 2.40358 8.40305 2.37954C8.9201 2.33399 9.16168 2.47462 9.31949 2.93004C9.67962 2.8908 10.0381 2.84854 10.3973 2.81276C11.0404 2.74857 11.6823 2.76347 12.3184 2.85787C14.4498 3.17517 16.0875 4.23108 17.2859 5.92969C17.83 6.70129 18.225 7.54279 18.4896 8.44147C18.5757 8.73453 18.6459 9.03216 18.7271 9.3433C18.6726 9.33795 18.6501 9.3363 18.6279 9.33351C17.6022 9.21185 16.6034 9.36771 15.6219 9.65745C14.7366 9.91899 13.896 10.291 13.0795 10.7096C11.7724 11.3801 10.4751 12.0679 9.17211 12.7466C8.90072 12.8876 8.62427 13.0193 8.34378 13.1587C8.32421 13.103 8.31478 13.0682 8.3007 13.0354C7.90205 12.1223 7.58753 11.1823 7.35793 10.2156C7.08779 9.07831 6.8997 7.93102 6.96795 6.75491C7.02312 5.80226 7.2502 4.89466 7.78531 4.07157C7.89114 3.90891 8.00384 3.75059 8.11953 3.58074C7.9457 3.58884 7.79074 3.61316 7.64047 3.59815C7.52753 3.58666 7.46792 3.62254 7.40615 3.70134C7.02141 4.19201 6.76651 4.74116 6.61046 5.33101C6.35533 6.2955 6.33177 7.27392 6.42642 8.25451C6.56683 9.71078 6.9402 11.1136 7.45709 12.4813C7.57172 12.7841 7.69931 13.0822 7.8241 13.3907C6.14374 14.1419 4.41392 14.7241 2.60698 15.1653L2.60735 15.1653ZM23.9482 12.408C23.9423 12.4182 23.9361 12.4288 23.9302 12.439C23.8428 12.4026 23.7573 12.3618 23.6678 12.3306C22.8478 12.0464 22.0274 12.0991 21.2102 12.3673C20.3721 12.6428 19.637 13.0962 18.9828 13.6616C18.3756 14.1867 17.8003 14.7462 17.2175 15.2972C16.7057 15.781 16.2224 16.2951 15.6197 16.6819C14.9539 17.1091 14.2264 17.3363 13.4277 17.3504C12.7263 17.363 12.0586 17.2164 11.4054 16.9987C10.1335 16.5743 8.97815 15.9451 7.9071 15.1704C7.56873 14.9257 7.24065 14.6674 6.89468 14.4052C6.95986 14.375 6.99741 14.3576 7.03495 14.3401C8.02341 13.8805 9.02367 13.4426 9.99786 12.9556C11.2662 12.3222 12.5033 11.6292 13.774 11.0005C14.9277 10.4296 16.1278 9.97041 17.4369 9.86124C18.1312 9.80332 18.8027 9.88324 19.4537 10.1152C20.6702 10.5487 21.812 11.1256 22.9198 11.7655C23.27 11.9676 23.6057 12.193 23.9477 12.4074L23.9482 12.408ZM20.1638 13.4867C20.1823 13.4648 20.1868 13.4556 20.1944 13.451C20.9402 12.9752 21.7332 12.6223 22.6402 12.5794C23.0212 12.5612 23.4023 12.5701 23.7564 12.7244C24.0762 12.8638 24.3177 13.0727 24.3218 13.4422C24.3259 13.8226 24.0973 14.0632 23.7642 14.2262C23.4033 14.4027 23.0173 14.398 22.633 14.353C21.7419 14.2483 20.952 13.8815 20.1638 13.4867Z" fill="white"/>
</svg>
